<svg version="1.1" id="Layer_1" xmlns="http://www.w3.org/2000/svg" xmlns:xlink="http://www.w3.org/1999/xlink" x="0px" y="0px"
	 width="100%" viewBox="0 0 300 274" enable-background="new 0 0 300 274" xml:space="preserve">
<path fill="#000000" opacity="1.000000" stroke="none" 
	d="
M188.000000,275.000000 
	C125.666664,275.000000 63.333321,275.000000 1.000000,275.000000 
	C1.000000,271.616852 1.000000,268.291382 1.468512,264.487305 
	C6.914950,264.004395 11.900738,264.179413 16.869301,263.961578 
	C30.778027,263.351868 40.033638,254.097443 40.410702,240.628860 
	C40.789841,227.086197 32.611851,218.167480 18.358969,216.871658 
	C12.593881,216.347534 6.787560,216.276947 1.000000,216.000000 
	C1.000000,144.375534 1.000000,72.751076 1.000000,1.063306 
	C100.898872,1.063306 200.797791,1.063306 301.000000,1.063306 
	C301.000000,76.687294 301.000000,152.374985 300.706116,228.791824 
	C296.069733,230.890839 291.727173,232.260727 287.415588,233.620834 
	C286.555023,229.350449 283.689636,230.223816 281.573547,231.132935 
	C282.672791,233.740280 284.103851,235.795273 284.336029,237.977829 
	C284.755707,241.923218 284.604218,245.951279 284.425201,249.932846 
	C284.205780,254.812134 286.419739,260.514252 279.554596,263.366272 
	C283.952301,263.366272 287.639343,263.366272 291.326355,263.366272 
	C291.327759,263.039093 291.329132,262.711945 291.330536,262.384766 
	C289.975098,262.089020 288.619659,261.793243 287.686340,261.589600 
	C287.686340,254.900864 287.634399,248.613983 287.701508,242.328369 
	C287.764130,236.462524 291.446350,233.181946 296.423615,233.436111 
	C298.264313,235.673996 299.632172,237.336990 301.000000,239.000000 
	C301.000000,250.962387 301.000000,262.924774 301.000000,275.000000 
	C266.645844,275.000000 232.291580,275.000000 197.193726,274.741211 
	C197.435913,272.849396 198.421707,271.216309 199.407501,269.583252 
	C198.049408,269.149292 197.441498,269.299408 196.938797,269.616425 
	C191.291290,273.177704 188.615387,272.293823 186.694611,266.029327 
	C185.966904,263.656006 185.424545,261.197083 185.090942,258.737366 
	C184.218094,252.302094 183.356613,245.920212 176.418381,242.660675 
	C184.834076,236.440613 186.410217,227.082138 180.964569,220.989838 
	C177.534027,217.151962 157.976761,214.215607 152.912354,217.974106 
	C160.160110,218.173599 158.717865,223.134232 158.743286,227.240952 
	C158.793839,235.407120 158.776230,243.573853 158.751160,251.740250 
	C158.737396,256.222198 160.024017,261.289001 153.891449,263.496155 
	C158.076416,263.496155 162.261383,263.496155 166.446350,263.496155 
	C166.471924,263.192963 166.497498,262.889771 166.523056,262.586578 
	C164.853241,262.244171 163.183441,261.901764 161.205215,261.496124 
	C161.205215,249.825302 161.201172,238.201279 161.206589,226.577240 
	C161.210358,218.485306 162.138901,217.710098 170.150970,219.145844 
	C171.129272,219.321167 172.084808,219.636047 173.041290,219.918777 
	C178.049393,221.399063 181.008804,224.525665 181.178711,229.954895 
	C181.353226,235.532166 179.167648,238.749573 173.558807,240.881470 
	C171.811447,241.545609 169.998627,242.037552 168.215775,242.608322 
	C169.319077,244.161057 170.409729,244.651047 171.550293,244.840546 
	C178.294174,245.960968 180.346115,247.547424 181.444153,254.090530 
	C182.670349,261.397369 183.483032,268.756409 188.000000,275.000000 
M125.559837,259.494812 
	C125.606041,244.648560 125.652237,229.802292 125.808823,214.351379 
	C123.710579,213.757004 121.612328,213.162613 119.514084,212.568237 
	C119.371117,213.256897 119.228149,213.945557 119.085182,214.634216 
	C120.396225,214.834885 121.707275,215.035538 123.152275,216.075272 
	C123.179062,230.371490 123.205856,244.667709 122.919258,259.587250 
	C121.314606,260.744568 119.709946,261.901917 117.607056,263.418579 
	C121.944267,263.418579 125.566582,263.418579 129.547302,263.418579 
	C127.702652,262.091522 126.408691,261.160614 125.559837,259.494812 
M267.298492,246.030731 
	C269.223724,246.030731 271.148956,246.030731 272.931976,246.030731 
	C274.572327,236.604980 269.872375,230.597122 261.368469,229.864151 
	C247.400970,228.660202 242.301361,244.253937 246.512848,255.417877 
	C250.358215,265.611267 264.667755,268.014221 271.549042,259.776276 
	C272.145325,259.062439 272.308258,257.986603 272.908508,256.490662 
	C268.715088,258.578766 265.354187,261.493103 261.880890,261.633911 
	C258.386200,261.775543 253.897049,260.013855 251.470535,257.509766 
	C249.047089,255.008865 248.639557,250.554550 247.008881,246.010956 
	C254.465668,246.010956 260.404419,246.010956 267.298492,246.030731 
M68.730362,259.259888 
	C65.049240,262.175812 60.883049,263.216248 56.642086,261.109253 
	C52.426296,259.014740 52.435329,254.685791 52.390079,250.649292 
	C52.336037,245.828690 52.417599,241.006531 52.358772,236.186035 
	C52.291992,230.714066 50.657726,229.705780 44.991222,231.990509 
	C46.817196,232.574326 48.286629,233.044159 49.942009,233.573441 
	C49.942009,240.703644 49.855015,247.510345 49.966198,254.313812 
	C50.079971,261.275879 53.696796,265.020752 60.579395,264.441895 
	C64.371529,264.123016 68.038704,262.318329 70.302025,261.628540 
	C73.323311,262.778717 75.525238,263.616943 77.727165,264.455200 
	C78.184799,263.894135 78.642426,263.333099 79.100060,262.772034 
	C73.492462,262.404175 74.356041,258.747955 74.341736,255.577362 
	C74.313240,249.260071 74.350586,242.942505 74.324089,236.625198 
	C74.298119,230.433334 72.680573,229.446457 65.820038,231.973572 
	C68.044617,232.500702 69.742836,232.903122 71.944275,233.424759 
	C71.944275,240.474518 72.079956,247.598175 71.827164,254.708023 
	C71.777969,256.091675 70.217278,257.421600 68.730362,259.259888 
M229.969635,249.322174 
	C228.851151,252.423706 227.732681,255.525253 226.614197,258.626770 
	C226.195999,258.556335 225.777802,258.485870 225.359589,258.415405 
	C222.479660,250.222336 219.599731,242.029282 216.727554,233.858246 
	C218.690231,233.118057 219.949478,232.643158 221.208710,232.168274 
	C221.145218,231.891159 221.081711,231.614059 221.018219,231.336945 
	C217.205002,231.336945 213.391800,231.336945 210.527954,231.336945 
	C212.105453,233.551346 214.120041,235.502396 215.071732,237.879074 
	C217.971375,245.120316 220.414902,252.542938 223.145187,259.854187 
	C223.775879,261.542999 224.841949,263.069214 226.297180,265.760468 
	C227.432709,263.183929 228.087112,261.905792 228.571213,260.566132 
	C231.111786,253.535538 233.622314,246.494019 236.116043,239.446655 
	C237.336105,235.998718 238.178955,232.236206 243.211395,231.854568 
	C239.312912,231.162430 235.664841,231.154755 232.017212,231.191315 
	C231.875626,231.192749 231.738297,231.618423 231.500870,232.006958 
	C232.674850,232.563583 233.793152,233.093826 235.250931,233.785019 
	C233.500412,238.857422 231.827072,243.706161 229.969635,249.322174 
M97.965569,264.580933 
	C107.192818,264.673462 112.846497,261.209015 111.182953,256.481628 
	C102.595299,262.879272 97.408440,263.627533 92.366699,259.196075 
	C87.255196,254.703308 85.753136,244.822998 90.164604,238.512726 
	C97.245911,228.383438 104.836372,231.559998 112.194000,239.946014 
	C111.812721,234.353302 108.680069,231.165970 103.693161,230.120239 
	C95.116638,228.321793 87.907478,232.920975 85.628677,241.644699 
	C82.655731,253.025742 86.933548,261.491058 97.965569,264.580933 
M134.245193,253.290436 
	C136.820847,256.335022 139.248657,259.522705 142.016281,262.381470 
	C144.483887,264.930267 145.731613,264.878113 147.410065,263.790375 
	C142.271667,258.003082 137.003616,252.069778 131.358978,245.712326 
	C137.590530,241.091064 139.879242,233.116776 148.044617,231.283295 
	C144.135910,231.283295 140.227188,231.283295 135.529404,231.283295 
	C136.983414,232.402847 137.889145,233.100235 139.028503,233.977509 
	C137.158905,236.072235 135.565552,237.977402 133.846649,239.761612 
	C127.810379,246.027222 127.080780,244.335892 133.248917,251.910706 
	C133.458679,252.168304 133.640045,252.449051 134.245193,253.290436 
M198.727615,246.500610 
	C197.544189,252.149155 202.133392,259.343536 192.601822,263.603699 
	C197.812668,263.603699 201.369690,263.603699 204.926712,263.603699 
	C204.985580,263.328461 205.044464,263.053223 205.103333,262.777985 
	C203.752716,262.266479 202.402100,261.754974 200.958923,261.208405 
	C200.958923,251.122177 200.958923,241.332413 200.958923,231.225159 
	C198.596634,231.225159 196.455704,231.225159 194.314774,231.225159 
	C198.668777,232.406204 199.027756,235.461685 198.757126,239.024597 
	C198.593933,241.173126 198.727478,243.344223 198.727615,246.500610 
z"/>
<path fill="#15418C" opacity="1.000000" stroke="none" 
	d="
M188.449982,275.000000 
	C183.483032,268.756409 182.670349,261.397369 181.444153,254.090530 
	C180.346115,247.547424 178.294174,245.960968 171.550293,244.840546 
	C170.409729,244.651047 169.319077,244.161057 168.215775,242.608322 
	C169.998627,242.037552 171.811447,241.545609 173.558807,240.881470 
	C179.167648,238.749573 181.353226,235.532166 181.178711,229.954895 
	C181.008804,224.525665 178.049393,221.399063 173.041290,219.918777 
	C172.084808,219.636047 171.129272,219.321167 170.150970,219.145844 
	C162.138901,217.710098 161.210358,218.485306 161.206589,226.577240 
	C161.201172,238.201279 161.205215,249.825302 161.205215,261.496124 
	C163.183441,261.901764 164.853241,262.244171 166.523056,262.586578 
	C166.497498,262.889771 166.471924,263.192963 166.446350,263.496155 
	C162.261383,263.496155 158.076416,263.496155 153.891449,263.496155 
	C160.024017,261.289001 158.737396,256.222198 158.751160,251.740250 
	C158.776230,243.573853 158.793839,235.407120 158.743286,227.240952 
	C158.717865,223.134232 160.160110,218.173599 152.912354,217.974106 
	C157.976761,214.215607 177.534027,217.151962 180.964569,220.989838 
	C186.410217,227.082138 184.834076,236.440613 176.418381,242.660675 
	C183.356613,245.920212 184.218094,252.302094 185.090942,258.737366 
	C185.424545,261.197083 185.966904,263.656006 186.694611,266.029327 
	C188.615387,272.293823 191.291290,273.177704 196.938797,269.616425 
	C197.441498,269.299408 198.049408,269.149292 199.407501,269.583252 
	C198.421707,271.216309 197.435913,272.849396 196.725067,274.741211 
	C194.299988,275.000000 191.599976,275.000000 188.449982,275.000000 
z"/>
<path fill="#14408A" opacity="1.000000" stroke="none" 
	d="
M1.000000,216.375000 
	C6.787560,216.276947 12.593881,216.347534 18.358969,216.871658 
	C32.611851,218.167480 40.789841,227.086197 40.410702,240.628860 
	C40.033638,254.097443 30.778027,263.351868 16.869301,263.961578 
	C11.900738,264.179413 6.914950,264.004395 1.468512,264.004333 
	C1.000000,263.250000 1.000000,262.500000 1.407104,261.506836 
	C4.872497,261.599518 6.018123,260.037872 5.998682,257.170959 
	C5.963774,252.023132 6.000148,246.874832 6.001870,241.726715 
	C6.004357,234.293533 6.002507,226.860336 6.002507,219.000000 
	C3.903610,219.000000 2.451805,219.000000 1.000000,219.000000 
	C1.000000,218.250000 1.000000,217.500000 1.000000,216.375000 
M8.721387,261.192535 
	C18.341063,263.835602 30.599314,258.928741 34.917206,250.706589 
	C43.005352,235.305099 32.529316,219.176636 14.345274,218.764679 
	C10.313635,218.673355 8.833408,219.737839 8.891963,224.005676 
	C9.058267,236.126678 8.770451,248.253937 8.721387,261.192535 
z"/>
<path fill="#143E88" opacity="1.000000" stroke="none" 
	d="
M301.000000,238.545898 
	C299.632172,237.336990 298.264313,235.673996 296.423615,233.436111 
	C291.446350,233.181946 287.764130,236.462524 287.701508,242.328369 
	C287.634399,248.613983 287.686340,254.900864 287.686340,261.589600 
	C288.619659,261.793243 289.975098,262.089020 291.330536,262.384766 
	C291.329132,262.711945 291.327759,263.039093 291.326355,263.366272 
	C287.639343,263.366272 283.952301,263.366272 279.554596,263.366272 
	C286.419739,260.514252 284.205780,254.812134 284.425201,249.932846 
	C284.604218,245.951279 284.755707,241.923218 284.336029,237.977829 
	C284.103851,235.795273 282.672791,233.740280 281.573547,231.132935 
	C283.689636,230.223816 286.555023,229.350449 287.415588,233.620834 
	C291.727173,232.260727 296.069733,230.890839 300.706116,229.260483 
	C301.000000,232.030594 301.000000,235.061188 301.000000,238.545898 
z"/>
<path fill="#000001" opacity="1.000000" stroke="none" 
	d="
M1.000000,219.468658 
	C2.451805,219.000000 3.903610,219.000000 6.002507,219.000000 
	C6.002507,226.860336 6.004357,234.293533 6.001870,241.726715 
	C6.000148,246.874832 5.963774,252.023132 5.998682,257.170959 
	C6.018123,260.037872 4.872497,261.599518 1.407104,261.131836 
	C1.000000,247.312439 1.000000,233.624878 1.000000,219.468658 
z"/>
<path fill="#133D84" opacity="1.000000" stroke="none" 
	d="
M266.820862,246.020844 
	C260.404419,246.010956 254.465668,246.010956 247.008881,246.010956 
	C248.639557,250.554550 249.047089,255.008865 251.470535,257.509766 
	C253.897049,260.013855 258.386200,261.775543 261.880890,261.633911 
	C265.354187,261.493103 268.715088,258.578766 272.908508,256.490662 
	C272.308258,257.986603 272.145325,259.062439 271.549042,259.776276 
	C264.667755,268.014221 250.358215,265.611267 246.512848,255.417877 
	C242.301361,244.253937 247.400970,228.660202 261.368469,229.864151 
	C269.872375,230.597122 274.572327,236.604980 272.931976,246.030731 
	C271.148956,246.030731 269.223724,246.030731 266.820862,246.020844 
M254.351852,244.865280 
	C259.737091,244.341949 265.122345,243.818619 270.509308,243.295120 
	C270.176208,236.837051 268.133514,233.963501 263.015106,232.782593 
	C257.550201,231.521744 252.803467,233.605743 250.012894,238.491058 
	C247.766739,242.423279 248.709717,244.160706 254.351852,244.865280 
z"/>
<path fill="#15428E" opacity="1.000000" stroke="none" 
	d="
M69.042068,259.018097 
	C70.217278,257.421600 71.777969,256.091675 71.827164,254.708023 
	C72.079956,247.598175 71.944275,240.474518 71.944275,233.424759 
	C69.742836,232.903122 68.044617,232.500702 65.820038,231.973572 
	C72.680573,229.446457 74.298119,230.433334 74.324089,236.625198 
	C74.350586,242.942505 74.313240,249.260071 74.341736,255.577362 
	C74.356041,258.747955 73.492462,262.404175 79.100060,262.772034 
	C78.642426,263.333099 78.184799,263.894135 77.727165,264.455200 
	C75.525238,263.616943 73.323311,262.778717 70.302025,261.628540 
	C68.038704,262.318329 64.371529,264.123016 60.579395,264.441895 
	C53.696796,265.020752 50.079971,261.275879 49.966198,254.313812 
	C49.855015,247.510345 49.942009,240.703644 49.942009,233.573441 
	C48.286629,233.044159 46.817196,232.574326 44.991222,231.990509 
	C50.657726,229.705780 52.291992,230.714066 52.358772,236.186035 
	C52.417599,241.006531 52.336037,245.828690 52.390079,250.649292 
	C52.435329,254.685791 52.426296,259.014740 56.642086,261.109253 
	C60.883049,263.216248 65.049240,262.175812 69.042068,259.018097 
z"/>
<path fill="#143F89" opacity="1.000000" stroke="none" 
	d="
M230.061691,248.938538 
	C231.827072,243.706161 233.500412,238.857422 235.250931,233.785019 
	C233.793152,233.093826 232.674850,232.563583 231.500870,232.006958 
	C231.738297,231.618423 231.875626,231.192749 232.017212,231.191315 
	C235.664841,231.154755 239.312912,231.162430 243.211395,231.854568 
	C238.178955,232.236206 237.336105,235.998718 236.116043,239.446655 
	C233.622314,246.494019 231.111786,253.535538 228.571213,260.566132 
	C228.087112,261.905792 227.432709,263.183929 226.297180,265.760468 
	C224.841949,263.069214 223.775879,261.542999 223.145187,259.854187 
	C220.414902,252.542938 217.971375,245.120316 215.071732,237.879074 
	C214.120041,235.502396 212.105453,233.551346 210.527954,231.336945 
	C213.391800,231.336945 217.205002,231.336945 221.018219,231.336945 
	C221.081711,231.614059 221.145218,231.891159 221.208710,232.168274 
	C219.949478,232.643158 218.690231,233.118057 216.727554,233.858246 
	C219.599731,242.029282 222.479660,250.222336 225.359589,258.415405 
	C225.777802,258.485870 226.195999,258.556335 226.614197,258.626770 
	C227.732681,255.525253 228.851151,252.423706 230.061691,248.938538 
z"/>
<path fill="#143F88" opacity="1.000000" stroke="none" 
	d="
M97.564400,264.525635 
	C86.933548,261.491058 82.655731,253.025742 85.628677,241.644699 
	C87.907478,232.920975 95.116638,228.321793 103.693161,230.120239 
	C108.680069,231.165970 111.812721,234.353302 112.194000,239.946014 
	C104.836372,231.559998 97.245911,228.383438 90.164604,238.512726 
	C85.753136,244.822998 87.255196,254.703308 92.366699,259.196075 
	C97.408440,263.627533 102.595299,262.879272 111.182953,256.481628 
	C112.846497,261.209015 107.192818,264.673462 97.564400,264.525635 
z"/>
<path fill="#14408A" opacity="1.000000" stroke="none" 
	d="
M134.039917,253.004715 
	C133.640045,252.449051 133.458679,252.168304 133.248917,251.910706 
	C127.080780,244.335892 127.810379,246.027222 133.846649,239.761612 
	C135.565552,237.977402 137.158905,236.072235 139.028503,233.977509 
	C137.889145,233.100235 136.983414,232.402847 135.529404,231.283295 
	C140.227188,231.283295 144.135910,231.283295 148.044617,231.283295 
	C139.879242,233.116776 137.590530,241.091064 131.358978,245.712326 
	C137.003616,252.069778 142.271667,258.003082 147.410065,263.790375 
	C145.731613,264.878113 144.483887,264.930267 142.016281,262.381470 
	C139.248657,259.522705 136.820847,256.335022 134.039917,253.004715 
z"/>
<path fill="#164493" opacity="1.000000" stroke="none" 
	d="
M198.727661,246.002899 
	C198.727478,243.344223 198.593933,241.173126 198.757126,239.024597 
	C199.027756,235.461685 198.668777,232.406204 194.314774,231.225159 
	C196.455704,231.225159 198.596634,231.225159 200.958923,231.225159 
	C200.958923,241.332413 200.958923,251.122177 200.958923,261.208405 
	C202.402100,261.754974 203.752716,262.266479 205.103333,262.777985 
	C205.044464,263.053223 204.985580,263.328461 204.926712,263.603699 
	C201.369690,263.603699 197.812668,263.603699 192.601822,263.603699 
	C202.133392,259.343536 197.544189,252.149155 198.727661,246.002899 
z"/>
<path fill="#184BA1" opacity="1.000000" stroke="none" 
	d="
M123.232651,258.963928 
	C123.205856,244.667709 123.179062,230.371490 123.754105,215.573975 
	C124.803436,215.033813 125.250946,214.994919 125.698441,214.956039 
	C125.652237,229.802292 125.606041,244.648560 125.110336,259.692078 
	C124.184769,259.580872 123.708710,259.272400 123.232651,258.963928 
z"/>
<path fill="#14408A" opacity="1.000000" stroke="none" 
	d="
M123.075951,259.275574 
	C123.708710,259.272400 124.184769,259.580872 124.887787,260.059540 
	C126.408691,261.160614 127.702652,262.091522 129.547302,263.418579 
	C125.566582,263.418579 121.944267,263.418579 117.607056,263.418579 
	C119.709946,261.901917 121.314606,260.744568 123.075951,259.275574 
z"/>
<path fill="#113571" opacity="1.000000" stroke="none" 
	d="
M125.753632,214.653717 
	C125.250946,214.994919 124.803436,215.033813 123.687126,215.154449 
	C121.707275,215.035538 120.396225,214.834885 119.085182,214.634216 
	C119.228149,213.945557 119.371117,213.256897 119.514084,212.568237 
	C121.612328,213.162613 123.710579,213.757004 125.753632,214.653717 
z"/>
<path fill="#000001" opacity="1.000000" stroke="none" 
	d="
M8.691404,260.785645 
	C8.770451,248.253937 9.058267,236.126678 8.891963,224.005676 
	C8.833408,219.737839 10.313635,218.673355 14.345274,218.764679 
	C32.529316,219.176636 43.005352,235.305099 34.917206,250.706589 
	C30.599314,258.928741 18.341063,263.835602 8.691404,260.785645 
z"/>
<path fill="#01050A" opacity="1.000000" stroke="none" 
	d="
M253.926239,244.891190 
	C248.709717,244.160706 247.766739,242.423279 250.012894,238.491058 
	C252.803467,233.605743 257.550201,231.521744 263.015106,232.782593 
	C268.133514,233.963501 270.176208,236.837051 270.509308,243.295120 
	C265.122345,243.818619 259.737091,244.341949 253.926239,244.891190 
z"/>
</svg>